<?xml version="1.0" encoding="iso-8859-1"?>
<!-- Generator: Adobe Illustrator 19.0.0, SVG Export Plug-In . SVG Version: 6.00 Build 0)  -->
<svg version="1.1" id="Layer_1" xmlns="http://www.w3.org/2000/svg" xmlns:xlink="http://www.w3.org/1999/xlink" x="0px" y="0px"
	 viewBox="0 0 508 508" style="enable-background:new 0 0 508 508;" xml:space="preserve">
<path style="fill:#4DB6AC;" d="M200.2,368.4v13.2c0,13.2,11.6,22.8,23.2,22.8h24.8h16.4h24c12,0,19.6-10,19.6-22.8v-13.2
	c-16.4,2.4-35.6,3.6-54,3.6S221,370.8,200.2,368.4z"/>
<path style="fill:#E0E0E0;" d="M268.2,366.4c15.2,0,29.6-0.8,42-2.4c0.8-0.8,1.6-0.8,2.8-0.8c0.8,0,0.4,0.4,0.8,0.8
	c42.8-5.6,66.4-16.8,66.4-25.6V6.4H127v332c0,8.8,25.6,20,68.4,25.6c0.4-0.4,1.6-0.4,2.4-0.4c1.2,0,2.4,0,3.2,0.8
	c12.8,1.6,26.8,2.4,42.4,2.4C243.8,366.4,268.2,366.4,268.2,366.4z"/>
<rect x="247.8" y="407.6" style="fill:#B2DFDB;" width="12" height="24"/>
<path d="M289,409.6h-63.2c-14.8,0-32.4-12.8-32.4-28.8v-13.2c0-2.4,1.6-4,4-4s4,1.6,4,4v13.2c0,11.2,13.2,20.8,24.4,20.8H289
	c11.6,0,17.2-10.8,17.2-20.8v-13.2c0-2.4,1.6-4,4-4s4,1.6,4,4v13.2C314.2,397.6,303.4,409.6,289,409.6z"/>
<path d="M253.8,372.8c-64.4,0-132.4-12.8-132.4-37.2V4c0-2.4,1.6-4,4-4h257.2c2.4,0,4,1.6,4,4v331.6
	C386.2,359.6,318.2,372.8,253.8,372.8z M129.4,8v327.6c0,12,47.2,29.2,124.4,29.2s124.4-16.8,124.4-29.2V8H129.4z"/>
<path d="M253.8,508c-2.4,0-4-1.6-4-4v-68.4c0-2.4,1.6-4,4-4s4,1.6,4,4V504C257.8,506.4,256.2,508,253.8,508z"/>
<path d="M261.8,437.6h-16c-2.4,0-4-1.6-4-4v-26c0-2.4,1.6-4,4-4s4,1.6,4,4v22h8v-22c0-2.4,1.6-4,4-4s4,1.6,4,4v26
	C265.8,436,264.2,437.6,261.8,437.6z"/>
<path d="M287.8,120.4h-64.4c-2.4,0-4-1.6-4-4s1.6-4,4-4h64.4c2.4,0,4,1.6,4,4S290.2,120.4,287.8,120.4z"/>
<path d="M287.8,164.8h-64.4c-2.4,0-4-1.6-4-4s1.6-4,4-4h64.4c2.4,0,4,1.6,4,4S290.2,164.8,287.8,164.8z"/>
<path d="M287.8,76.4h-64.4c-2.4,0-4-1.6-4-4s1.6-4,4-4h64.4c2.4,0,4,1.6,4,4S290.2,76.4,287.8,76.4z"/>
<path d="M287.8,208.8h-64.4c-2.4,0-4-1.6-4-4s1.6-4,4-4h64.4c2.4,0,4,1.6,4,4S290.2,208.8,287.8,208.8z"/>
<path d="M287.8,252.8h-64.4c-2.4,0-4-1.6-4-4s1.6-4,4-4h64.4c2.4,0,4,1.6,4,4S290.2,252.8,287.8,252.8z"/>
<path d="M287.8,297.2h-64.4c-2.4,0-4-1.6-4-4s1.6-4,4-4h64.4c2.4,0,4,1.6,4,4S290.2,297.2,287.8,297.2z"/>
<path d="M253.8,352.4c-60.8,0-102-10.8-110.8-18.4c-0.8-0.8-1.6-2-1.6-3.2V23.6c0-2.4,1.6-4,4-4h174.8c2.4,0,4,1.6,4,4s-1.6,4-4,4
	H149.4v300.8C159,334,197,344,253.8,344c56.8,0,91.6-10,104.4-16V27.6h-6c-2.4,0-4-1.6-4-4s1.6-4,4-4h10c2.4,0,4,1.6,4,4v307.2
	c0,1.6-0.8,2.8-2,3.6C352.2,341.2,315.4,352.4,253.8,352.4z"/>
<g>
</g>
<g>
</g>
<g>
</g>
<g>
</g>
<g>
</g>
<g>
</g>
<g>
</g>
<g>
</g>
<g>
</g>
<g>
</g>
<g>
</g>
<g>
</g>
<g>
</g>
<g>
</g>
<g>
</g>
</svg>
